<?xml version="1.0" standalone="no"?>
<!DOCTYPE svg PUBLIC "-//W3C//DTD SVG 20010904//EN"
 "http://www.w3.org/TR/2001/REC-SVG-20010904/DTD/svg10.dtd">
<svg version="1.0" xmlns="http://www.w3.org/2000/svg"
 width="512.000000pt" height="512.000000pt" viewBox="0 0 512.000000 512.000000"
 preserveAspectRatio="xMidYMid meet">
<metadata>
Created by potrace 1.14, written by Peter Selinger 2001-2017
</metadata>
<g transform="translate(0.000000,512.000000) scale(0.100000,-0.100000)"
fill="#000000" stroke="none">
<path d="M2638 5115 c-1 -1 -61 -5 -133 -9 -71 -3 -141 -8 -155 -10 -14 -2
-47 -8 -75 -12 -27 -4 -52 -8 -55 -9 -3 -1 -25 -5 -50 -9 -107 -20 -308 -94
-413 -153 -33 -18 -61 -33 -63 -33 -7 0 -179 -120 -209 -145 -16 -14 -54 -47
-83 -72 -118 -101 -283 -316 -361 -470 -67 -135 -141 -348 -156 -453 -1 -8 -5
-40 -10 -70 -12 -82 -13 -92 -14 -131 -1 -27 -7 -39 -23 -47 -85 -44 -251
-174 -345 -269 -263 -269 -425 -595 -477 -958 -21 -146 -22 -1709 -2 -1805 62
-288 324 -481 622 -457 132 11 236 60 359 167 89 78 204 141 305 166 75 19
149 21 385 9 290 -15 948 -9 1055 10 14 2 47 7 73 10 80 9 218 42 313 76 487
171 866 548 1047 1042 6 17 11 15 51 -12 92 -64 221 -100 339 -95 88 4 135 17
232 64 140 67 240 179 296 330 l24 65 1 855 c2 920 2 932 -51 1142 -41 163
-138 386 -211 485 -13 17 -24 34 -24 37 0 14 -127 170 -193 237 -139 143 -282
247 -455 335 -106 52 -313 128 -383 138 -20 3 -42 8 -50 10 -22 8 -133 23
-234 32 -65 5 -871 14 -877 9z m677 -429 c99 -4 198 -9 220 -11 209 -22 405
-90 576 -200 91 -59 101 -67 210 -175 208 -207 326 -453 365 -756 4 -33 7
-410 7 -839 0 -862 4 -812 -63 -869 -32 -26 -47 -30 -108 -28 -40 2 -67 18
-158 95 -198 168 -446 256 -709 252 -55 -1 -176 -6 -270 -10 -269 -14 -946 -7
-974 9 -3 2 -28 6 -56 10 -63 7 -189 40 -255 66 -412 162 -707 513 -796 945
-25 124 -25 376 0 495 106 494 489 881 970 980 121 25 160 28 441 36 132 4
241 7 242 8 3 2 176 -2 358 -8z m-2381 -1778 c217 -669 802 -1131 1496 -1183
236 -17 706 -21 960 -8 221 12 377 10 391 -4 27 -27 -90 -285 -193 -424 -113
-154 -268 -286 -436 -372 -98 -51 -266 -110 -345 -121 -27 -4 -59 -10 -70 -12
-94 -20 -862 -26 -1112 -10 -221 15 -300 10 -448 -28 -153 -39 -330 -133 -434
-230 -89 -82 -135 -100 -201 -81 -50 16 -77 37 -100 80 -13 26 -15 124 -15
805 1 714 3 851 18 920 2 14 10 49 16 78 28 136 100 300 191 434 53 77 235
275 244 265 2 -2 20 -51 38 -109z"/>
<path d="M1930 3938 c-86 -13 -206 -77 -276 -147 -102 -101 -155 -224 -158
-366 -3 -144 49 -277 149 -380 104 -107 211 -155 361 -160 159 -7 283 42 395
154 112 112 161 237 154 396 -9 226 -145 409 -360 483 -74 26 -175 34 -265 20z
m145 -433 c84 -41 69 -168 -23 -194 -42 -12 -105 17 -121 56 -18 44 -5 98 31
128 34 29 66 31 113 10z"/>
<path d="M3215 3939 c-182 -33 -341 -165 -405 -334 -30 -81 -34 -106 -33 -205
1 -139 53 -260 153 -361 100 -101 209 -148 355 -154 159 -7 284 42 396 154
113 113 166 251 155 406 -3 44 -10 96 -16 115 -58 179 -205 323 -378 370 -54
14 -174 19 -227 9z m128 -428 c44 -17 67 -51 67 -99 0 -60 -43 -102 -104 -102
-60 1 -96 35 -103 99 -4 33 0 43 30 74 36 39 64 45 110 28z"/>
</g>
</svg>
